<?xml version="1.0" encoding="UTF-8"?>
<svg id="Layer_1" data-name="Layer 1" xmlns="http://www.w3.org/2000/svg" viewBox="0 0 160.71 93.18">
  <defs>
    <style>
      .cls-1 {
        font-family: Montserrat-Regular, Montserrat;
        font-size: 12.08px;
      }

      .cls-2 {
        letter-spacing: -.05em;
      }
    </style>
  </defs>
  <path d="M128.8,41.26h7.76v8.87c1.55-2.23,3.72-3.41,6.36-3.41,5.38,0,11.12,3.62,11.12,12.98v13.24h-7.76v-13.24c0-4.03-1.96-5.74-4.86-5.74s-4.86,1.81-4.86,5.74v13.24h-7.76v-31.67Z"/>
  <path d="M42.36,22.71c0-7.96,4.76-11.69,11.74-11.69s11.69,3.67,11.74,11.74v.16h-7.93v-.21c0-3.41-1.59-4.45-3.81-4.45s-3.81,1.03-3.81,4.45v14.53h-7.93v-14.53Z"/>
  <path d="M68.36,24.29c0-7.76,5.69-13.45,13.76-13.45s13.6,5.69,13.6,13.45v2.17h-19.29c.62,3,2.9,4.35,5.69,4.35,2.22,0,3.88-.47,4.86-1.86h8.02c-1.65,5.28-6.52,8.79-12.88,8.79-8.07,0-13.76-5.69-13.76-13.45ZM87.75,21.55c-.88-2.64-2.95-3.77-5.64-3.77s-4.76,1.19-5.54,3.77h11.17Z"/>
  <path d="M98.53,24.29c0-7.76,5.69-13.45,13.76-13.45s13.6,5.69,13.6,13.45v2.17h-19.29c.62,3,2.9,4.35,5.69,4.35,2.23,0,3.88-.47,4.86-1.86h8.02c-1.65,5.28-6.52,8.79-12.88,8.79-8.07,0-13.76-5.69-13.76-13.45ZM117.92,21.55c-.88-2.64-2.95-3.77-5.64-3.77s-4.76,1.19-5.53,3.77h11.17Z"/>
  <path d="M128.7,23.83c0-8.59,5.07-12.98,12.62-12.98s12.62,4.34,12.62,12.98v13.24h-7.76v-13.24c0-4.03-1.96-5.74-4.86-5.74s-4.86,1.71-4.86,5.74v13.24h-7.76v-13.24Z"/>
  <path d="M58.09,41.26v17.37c0,4.14-1.67,5.57-3.99,5.57s-3.92-1.43-3.92-5.57v-17.37h-7.76v17.37c0,4.14-1.67,5.57-3.96,5.57s-3.99-1.43-3.99-5.57v-14.96c-1.87,2.02-5.17,5.48-7.76,7.77v7.19c0,9.95,4.78,14.3,10.98,14.3,3.62,0,6.66-1.67,8.58-4.93,1.92,3.26,4.9,4.93,8.58,4.93,6.21,0,10.98-4.35,10.98-14.3v-17.37h-7.76Z"/>
  <path d="M68.33,59.8c0-8.22,5.69-13.76,13.81-13.76s13.6,5.33,13.6,13.7v12.52h-7.14v-4.24c-1.35,3.16-4.24,4.91-7.91,4.91-5.69,0-12.36-4.24-12.36-13.14ZM86.45,60.06c-1.27-4.06-5.41-8.65-5.41-8.65,0,0-3.61,4.39-4.93,8.51-1.12,3.5,1.51,6.53,5.02,6.53s6.41-2.88,5.32-6.39Z"/>
  <path d="M98.53,64.51h9.59c.06,1.34,1.3,2.02,3.95,2.02,2.98,0,3.96-.83,3.96-1.91,0-1.71-2.33-1.86-5.32-2.22-4.41-.52-11.67-1.4-11.67-7.55,0-5.17,5.12-8.79,13.1-8.79s12.9,3.67,13.1,8.27h-9.46c-.26-1.19-1.56-1.86-3.5-1.86-2.4,0-3.37.98-3.37,2.02,0,1.55,2.33,1.76,5.32,2.12,4.6.52,11.67,1.5,11.67,7.55,0,5.28-5.45,8.79-13.68,8.79s-13.55-3.52-13.68-8.43Z"/>
  <path d="M2.19,23.74C2.19,12.85,10,4.85,21.05,4.85c8.83,0,15.66,5.11,17.99,12.78h-9.65c-1.68-2.78-4.61-4.45-8.35-4.45-6.01,0-9.97,4.45-9.97,10.56s3.96,10.56,9.97,10.56c4.44,0,7.59-1.83,9.21-5.39h-11.38v-7.22h20.97v3.95c-.87,9.89-9.59,17.09-18.83,25.81C11.78,42.46,2.19,34.63,2.19,23.74Z"/>
  <text class="cls-1" transform="translate(35.23 88.34) scale(1.26 1)"><tspan class="cls-2" x="0" y="0">P</tspan><tspan x="8.13" y="0">ARK &amp; SHINE</tspan></text>
  <path d="M77.21,61.13c.05.5.31,2.73,1.91,3.53.84.42,2.51.36,2.38.29-.46-.24-1.18-.43-2.14-1.19-1.28-1.01-1.87-1.75-2.15-2.63Z"/>
</svg>